<?xml version="1.0" encoding="UTF-8"?>
<svg width="512pt" height="512pt" version="1.1" viewBox="0 0 512 512" xmlns="http://www.w3.org/2000/svg">
 <path d="m429.72 237.61c-5.7852-2.418-12.078-2.3398-18.223-2.6406-8.0391-0.39844-16.082-0.79688-24.121-1.1992-5.3711-0.26562-11.852 0.16406-17.027-1.4844-3.4766-1.1055 4.8672-9.7656 6.5469-11.664 9.6211-10.863 19.246-21.723 28.867-32.59 3.5117-3.9609 9.6445-9.7695 4.7422-15-4.1836-4.4648-9.4609 0.42578-12.668 3.6602-37.129 37.441-74.266 74.891-111.39 112.33-1.8828 1.8984-3.7695 3.8047-5.6562 5.7031-1.3008 1.3125-2.6523 2.5703-4.1484 3.6602-3.8008 2.7695-3.9023-3.7461-3.9922-6.4805-0.26953-8.2383-0.54297-16.477-0.82031-24.719-1.0039-30.363-2.0078-60.719-3.0117-91.078-0.11328-3.4062-0.22656-6.8086-0.33984-10.211-0.25781-7.8125 1.2656-13.312 6.4805-19.281 3.8242-4.6328 7.9219-9.0742 11.879-13.598 4.3477-4.9766 8.6992-11.062 14.125-14.914 4.668-3.3125 13.562-2.5859 19.152-2.8633 6.3555-0.31641 12.715-0.62891 19.066-0.94531 3.3242-0.16406 10.781 0.41797 10.23-4.0898-0.21484-1.7773-9.2969-2.0273-11.176-2.1211-6.0508-0.30078-12.129-0.44922-18.164-0.90234-0.98437-0.050782-6.9492-0.18359-7.0898-1.6602-0.18359-1.8906 1.9453-4.4336 2.9961-5.8125 1.3945-1.8281 3.0117-3.5078 4.5156-5.2383 4.5-5.1523 8.9961-10.301 13.496-15.453 1.4375-1.6484 6.3164-7.168 5.4883-9.4727-2.3945-6.668-8.6797-0.51172-11.582 2.3789-2.3945 2.2383-4.6641 4.6406-6.9883 6.9492-11.152 11.086-22.297 22.168-33.449 33.254-3.8281 3.8047-7.6562 7.6094-11.484 11.414-1.2148 1.2031-2.418 2.4023-3.7461 3.4805-1.5312 1.2383-3.2578 3.1172-4.1641 0.51562-0.67188-1.9258-0.98828-4.0508-1.0547-6.082-0.83984-25.375-1.6797-50.75-2.5156-76.125-0.14844-4.5625 0.63672-11.516-3.9258-13.797-6.1992-3.0977-7.6914 6.1836-7.832 10.477-0.23438 7.168-0.47656 14.336-0.71094 21.504-1.8477 55.941-3.6953 111.89-5.5508 167.83-0.046875 1.4062-0.0625 2.8164-0.13672 4.2227-0.03125 0.9375-0.070313 7.0703-1.4531 7.2305-1.7773 0.19922-4.2383-2.1641-5.4375-3.2109-0.62891-0.54688-1.207-1.1406-1.7969-1.7305-6.8203-6.7773-13.633-13.551-20.453-20.332-22.223-22.086-44.438-44.176-66.656-66.262-5.2578-5.2266-10.363-11.414-16.395-15.805-3.7852-2.7539-7.9805-1.4297-10.281 2.6914-2.2852 4.0898 0.375 8.1445 3.2148 11.402 3.4648 3.9688 6.9336 7.9414 10.398 11.91 5.2266 5.9844 10.453 11.977 15.684 17.961 1.9258 2.207 10.977 11.043 7.2227 12.484-4.5586 1.75-10.312 1.3008-15.113 1.4805-8.0586 0.30078-16.113 0.60938-24.172 0.91016-5.1133 0.19531-10.23 0.38281-15.34 0.57812-3.1172 0.11719-10.344-0.035156-10.344 3.9414 0 4.0039 7.3125 3.8281 10.441 3.9492 12.953 0.48828 25.902 0.97656 38.855 1.4648 6.2578 0.23438 12.512 0.47266 18.766 0.70703 1.7305 0.066406 3.457 0.12109 5.1797 0.3125 5.8789 0.64453 9.3438 3.0625 13.414 7.3047 6.957 7.2617 13.312 15.211 19.926 22.785 10.133 11.602 20.262 23.199 30.391 34.801 2.1523 2.4609 4.3789 4.875 6.4375 7.4141 4.5625 5.6406 5.7656 10.969 5.5234 18.164-0.80469 24.324-1.6094 48.648-2.4102 72.98-0.86719 26.18-1.7305 52.363-2.5977 78.539-0.11328 3.3438 1.1914 10.59-1.2227 12.242-1.3008 0.89063-2.8945 0.40625-4.2812 0.039063-3.5586-0.92578-7.1289-1.7773-10.742-2.457-7.625-1.4453-15.363-2.2461-23.129-2.3242-25.441-0.25-50.754 7.6602-71.348 22.645-2.6484 1.9258-5.2109 3.9688-7.8086 5.9648-4.6602 3.5938 8.1758 3.0547 9.3281 3.0547h8.0078 42.113c22.906 0 45.82 0.003906 68.727 0.003906h141.02 8.9336c0.79688-0.046875 4.582-0.035156 2.5977-1.4219-5.0547-3.5391-12.371-5.2734-18.121-7.2773-13.574-4.7266-27.602-8.1953-41.859-10.016-14.703-1.8789-29.656-1.9922-44.355-0.015625-5.3594 0.71875-10.656 1.75-15.922 2.9844-4.1484 0.97266-3.0312-9.5195-3.1016-11.66-0.83594-25.309-1.6758-50.617-2.5078-75.926-0.37891-11.387-0.75391-22.773-1.1328-34.16-0.22656-6.7734 0.41797-11.828 4.4531-17.453 1.8516-2.5859 4.0664-4.9062 6.168-7.2812 18.902-21.34 37.805-42.68 56.711-64.016 1.207-1.3633 2.418-2.7227 3.6211-4.0859 4.2383-4.7812 7.7227-7.1172 14.008-8.1055 6.8359-1.0703 13.984-0.90625 20.875-1.25 10.691-0.53125 21.383-1.0586 32.07-1.5938 5.1328-0.25781 21.168 0.71875 17.277-7.5195z"/>
</svg>
